<svg width="300" height="200" viewBox="0 0 300 200" fill="none" xmlns="http://www.w3.org/2000/svg">
<g clip-path="url(#clip0_7_252)">
<path d="M0 0H300V200H0V0Z" fill="#0D0D0D"/>
<path d="M120.023 99.9109L178.62 130.94C158.235 164.453 142.08 178.833 130.146 174.091C112.237 166.975 125.718 164.402 109.814 161.477C93.8961 158.543 103.566 150.069 94.6867 148.364C85.8077 146.659 60.5431 133.628 78.0639 129.796C96.439 125.791 110.403 115.834 120.023 99.9109V99.9109Z" fill="#D9E3F2"/>
<mask id="mask0_7_252" style="mask-type:luminance" maskUnits="userSpaceOnUse" x="72" y="99" width="107" height="76">
<path d="M120.028 99.9095L178.62 130.932C158.23 164.45 142.073 178.833 130.14 174.092C112.233 166.978 125.714 164.404 109.81 161.48C93.893 158.549 103.564 150.072 94.685 148.369C85.8064 146.665 60.5438 133.637 78.065 129.802C96.4405 125.794 110.406 115.835 120.028 99.9095V99.9095Z" fill="white"/>
</mask>
<g mask="url(#mask0_7_252)">
<path fill-rule="evenodd" clip-rule="evenodd" d="M98.1396 118.534C89.9459 128.427 65.2403 131.253 65.5427 133.991C65.8588 136.737 99.2314 162.581 111.557 170.228C123.882 177.875 150.562 201.602 155.03 185.82C159.498 170.038 161.441 168.408 164.455 163.618C167.47 158.828 170.303 154.325 157.884 155.602C145.455 156.892 134.044 151.163 129.403 141.87C124.739 132.583 106.283 108.629 98.1121 118.517L98.1396 118.534Z" fill="#FF6680"/>
</g>
<mask id="mask1_7_252" style="mask-type:luminance" maskUnits="userSpaceOnUse" x="72" y="99" width="107" height="76">
<path d="M120.028 99.9095L178.62 130.932C158.23 164.45 142.073 178.833 130.14 174.092C112.233 166.978 125.714 164.404 109.81 161.48C93.893 158.549 103.564 150.072 94.685 148.369C85.8064 146.665 60.5438 133.637 78.065 129.802C96.4405 125.794 110.406 115.835 120.028 99.9095V99.9095Z" fill="white"/>
</mask>
<g mask="url(#mask1_7_252)">
<path fill-rule="evenodd" clip-rule="evenodd" d="M98.021 118.479C89.8548 128.389 65.1579 131.202 65.4516 133.953C65.7677 136.699 99.1489 162.529 111.474 170.176C123.8 177.824 150.479 201.551 154.939 185.783C159.407 170.001 161.358 168.357 164.364 163.581C167.379 158.79 170.212 154.288 157.793 155.564C145.373 156.841 133.961 151.112 129.312 141.833C124.657 132.532 106.192 108.592 98.021 118.479Z" fill="#FF6680"/>
</g>
<path d="M151.679 112.259L123.52 94.7773L127.867 87.8651C134.423 77.4422 153.93 92.7819 162.866 78.575C171.792 64.3817 167.26 58.3958 175.508 45.2817C180.173 37.864 190.924 25.6956 201.841 32.4733C212.758 39.2509 206.462 54.1849 201.797 61.6026C193.549 74.7167 186.161 73.3019 177.234 87.4951C168.299 101.702 190.727 112.397 184.172 122.82L179.824 129.732L151.665 112.251L151.679 112.259ZM190.316 51.7396C192.722 53.2334 196.204 52.014 198.094 49.0087C199.984 46.0034 199.57 42.346 197.164 40.8522C194.757 39.3584 191.267 40.5915 189.377 43.5968C187.487 46.6021 187.91 50.2458 190.316 51.7396Z" fill="#FFAB19"/>
<path fill-rule="evenodd" clip-rule="evenodd" d="M126.169 89.9911L182.462 124.946L176.268 134.772L119.976 99.8332L126.169 89.9911Z" fill="#CF8B17"/>
</g>
<defs>
<clipPath id="clip0_7_252">
<rect width="300" height="200" fill="white"/>
</clipPath>
</defs>
</svg>
