<svg width="300" height="200" viewBox="0 0 300 200" fill="none" xmlns="http://www.w3.org/2000/svg">
<g clip-path="url(#clip0_1_2)">
<path d="M0 0H300V200H0V0Z" fill="#0D0D0D"/>
<path fill-rule="evenodd" clip-rule="evenodd" d="M98.1628 151.202C98.1628 151.202 59.4674 161.446 80.0133 174.492C106.098 191.055 204.361 195.594 221.665 182C238.97 168.409 199.804 151.202 185.893 151.202H98.1628Z" fill="black" fill-opacity="0.1"/>
<path fill-rule="evenodd" clip-rule="evenodd" d="M137.947 134.153C175.528 129.332 211.005 141.344 210.967 163.375C210.949 173.011 193.975 175.609 169.59 180.255C140.275 185.838 104.924 176.816 94.3402 163.297C77.5441 141.841 101.187 138.865 137.947 134.153Z" fill="#575E75"/>
<path fill-rule="evenodd" clip-rule="evenodd" d="M198.753 143.393C198.753 143.393 170.509 156.791 148.213 148.945C125.919 141.1 116.314 137.132 116.314 137.132C116.314 137.132 146.564 133.095 159.01 133.095C183.906 133.095 198.753 143.393 198.753 143.393Z" fill="#231F20" fill-opacity="0.1"/>
<path fill-rule="evenodd" clip-rule="evenodd" d="M174.537 112.56C205.815 115.244 207.741 126.679 192.634 137.151C178.138 147.2 121.725 141.6 104.291 127.381C86.8566 113.162 143.939 109.937 174.537 112.56Z" fill="#666F87"/>
<path fill-rule="evenodd" clip-rule="evenodd" d="M180.432 113.364C180.432 113.364 176.181 128.27 155.79 126.902C135.401 125.533 119.367 114.565 119.367 114.565C119.367 114.565 139.834 111.628 156.345 111.731C172.857 111.835 180.432 113.364 180.432 113.364ZM208.4 154.105C210.037 157.971 202.602 164.569 199.305 163.252C196.008 161.933 190.324 174.149 177.478 173.911C164.632 173.67 140.759 181.575 128.252 175.707C115.748 169.839 90.3849 160.171 89.3112 154.105C89.3112 154.105 93.7289 180.297 149.188 181.894C164.139 182.325 173.964 179.186 183.086 177.704C207.804 173.683 215.599 168.68 208.4 154.105Z" fill="#231F20" fill-opacity="0.1"/>
<path fill-rule="evenodd" clip-rule="evenodd" d="M151.536 78.3643C182.206 81.038 191.359 106.888 176.545 117.321C162.331 127.331 136.828 126.285 119.732 112.121C102.637 97.9567 121.535 75.7503 151.536 78.3643Z" fill="#B3BFA6"/>
<path fill-rule="evenodd" clip-rule="evenodd" d="M175.449 86.6054C170.722 94.1093 126.993 89.09 125.827 82.7208C125.827 82.7208 139.297 76.5182 152.642 78.5663C165.986 80.6177 173.862 84.2986 177.379 88.4951" fill="#231F20" fill-opacity="0.1"/>
<path fill-rule="evenodd" clip-rule="evenodd" d="M151.785 60.8976C174.239 68.2722 196.02 60.2752 187.832 76.4002C181.676 88.521 129.737 86.0654 112.488 72.8325C95.2409 59.6011 122.865 51.3988 151.785 60.8976Z" fill="#666F87"/>
<path fill-rule="evenodd" clip-rule="evenodd" d="M171.274 64.8113C168.407 67.3007 149.363 70.6825 142.324 68.0266C135.283 65.3706 126.8 62.4495 125.473 56.7852C125.473 56.7852 141.958 57.2798 148.373 60.3286C154.788 63.3774 171.274 64.8113 171.274 64.8113Z" fill="#231F20" fill-opacity="0.1"/>
<path fill-rule="evenodd" clip-rule="evenodd" d="M151.245 38.6024C170.546 40.2658 183.628 54.3717 174.305 60.8685C165.362 67.0987 143.658 68.5471 132.898 59.7305C122.14 50.9123 132.366 36.9745 151.245 38.6024Z" fill="#D0E2D6"/>
<path fill-rule="evenodd" clip-rule="evenodd" d="M195.7 117.834C197.92 119.36 189.362 138.428 178.168 138.921C166.974 139.414 145.115 132.758 139.761 135.098C134.407 137.441 117.858 132.758 116.707 128.687C115.557 124.618 103.845 119.741 104.101 119.36C106.523 115.87 102.574 120.886 102.574 120.886C102.574 120.886 93.4136 126.712 130.054 138.921C168.916 148.849 194.169 139.983 200.28 130.043C204.859 120.886 195.7 117.834 195.7 117.834Z" fill="#231F20" fill-opacity="0.1"/>
<path fill-rule="evenodd" clip-rule="evenodd" d="M179.976 93.2008C183.425 97.4119 177.46 115.341 150.336 112.602C123.212 109.864 114.666 94.0608 117.645 89.3874C117.645 89.3874 111.613 96.0799 113.699 103.532C115.785 110.984 130.866 123.543 150.223 123.925C169.582 124.305 182.58 116.553 183.434 105.617C183.987 98.5338 179.976 93.2008 179.976 93.2008Z" fill="#231F20" fill-opacity="0.1"/>
<path fill-rule="evenodd" clip-rule="evenodd" d="M173.326 99.5231C174.994 99.6201 174.503 102.873 172.392 102.549C170.282 102.224 171.477 99.4132 173.326 99.5231ZM168.009 94.3809C168.955 95.9377 166.474 97.5687 165.415 95.4721C164.356 93.3754 166.962 92.6561 168.009 94.3809ZM140.529 97.433C141.473 98.9897 138.996 100.621 137.935 98.5241C136.876 96.4275 139.483 95.7081 140.529 97.433ZM172.73 93.5759C174.369 94.4003 174.867 96.4453 173.654 96.4453C172.443 96.4453 171.115 96.7572 171.288 95.0098C171.461 93.2639 172.1 93.2574 172.73 93.5759Z" fill="#231F20" fill-opacity="0.1"/>
<path fill-rule="evenodd" clip-rule="evenodd" d="M151.953 53.7363C153.622 53.8333 153.13 57.0874 151.019 56.7625C148.908 56.4392 150.105 53.628 151.953 53.7363ZM136.687 44.5787C138.356 44.6757 137.862 47.9297 135.752 47.6064C133.642 47.2815 134.839 44.4704 136.687 44.5787ZM161.903 48.5941C162.847 50.1509 160.368 51.782 159.309 49.6853C158.248 47.5903 160.857 46.8709 161.903 48.5941Z" fill="white"/>
<path fill-rule="evenodd" clip-rule="evenodd" d="M136.249 96.6829C137.819 98.1782 138.086 100.512 137.135 101.874C136.111 103.341 135.861 102.504 134.866 99.279C134.037 96.5891 135.646 96.1074 136.249 96.6829ZM189.463 68.6877C188.747 70.5597 187.507 70.398 185.285 71.5328C183.063 72.6644 184.2 78.1719 181.396 78.3336C178.592 78.4952 157.826 81.8964 154.644 79.061C151.46 76.2289 143.352 74.7707 139.714 75.419C136.076 76.0656 122.434 74.3844 120.539 69.9227C118.646 65.4579 105.383 65.2267 108.036 61.4957C108.036 61.4957 103.86 66.562 113.678 73.2156C123.497 79.8725 143.731 84.7561 158.358 84.2162C172.983 83.6779 183.055 82.4541 186.773 77.6821C190.49 72.9085 189.463 68.6877 189.463 68.6877Z" fill="#231F20" fill-opacity="0.1"/>
<path fill-rule="evenodd" clip-rule="evenodd" d="M176.17 51.4296C177.717 54.3312 175.798 58.8931 170.26 60.9154C164.723 62.9361 151.51 59.0725 146.848 59.9972C142.188 60.9219 128.317 50.7506 129.996 47.6291C129.996 47.6291 122.755 59.252 144.738 64.753C160.556 68.7119 175.743 61.8352 177.004 58.1285C178.196 54.6271 176.17 51.4296 176.17 51.4296ZM166.366 43.6298C166.366 43.6298 159.804 48.5004 149.209 47.4901C138.616 46.4797 134.633 41.1371 134.633 41.1371C134.633 41.1371 139.829 37.8005 149.88 38.5927C159.93 39.388 168.221 44.687 168.221 44.687" fill="#231F20" fill-opacity="0.1"/>
<path fill-rule="evenodd" clip-rule="evenodd" d="M143.888 26.7467C157.485 25.2481 172.399 26.7467 171.206 38.0446C170.298 46.63 143.299 46.7578 133.302 38.3889C123.306 30.0218 130.043 28.2743 143.888 26.7467Z" fill="#666F87"/>
<path fill-rule="evenodd" clip-rule="evenodd" d="M162.113 27.8572C162.113 27.8572 154.191 33.1756 146.861 32.2607C139.53 31.3441 137.686 27.8572 137.686 27.8572C137.686 27.8572 145.959 26.2423 151.353 26.2617C156.748 26.2811 162.113 27.8572 162.113 27.8572Z" fill="#231F20" fill-opacity="0.1"/>
<path fill-rule="evenodd" clip-rule="evenodd" d="M147.117 17.2722C156.997 16.2166 172.79 20.3161 166.964 25.2223C164.448 27.3416 151.177 31.2374 142.557 28.1967C134.274 25.2724 137.057 18.3471 147.117 17.2722Z" fill="#D0E2D6"/>
<path fill-rule="evenodd" clip-rule="evenodd" d="M170.835 33.7802C171.186 36.9971 168.533 39.5092 165.567 39.4446C162.603 39.3799 159.136 38.1562 157.792 39.4446C156.45 40.7346 156.227 42.4788 153.15 41.7691C150.074 41.0579 144.761 37.12 139.95 37.3156C135.139 37.5096 128.933 31.1727 129.266 29.886C129.266 29.886 128.223 30.9594 128.613 32.0942C129.004 33.2306 131.713 40.8396 146.552 43.6492C161.392 46.4603 168.939 42.204 170.329 39.8552C171.721 37.508 171.285 34.9829 170.835 33.7802ZM159.06 18.3358C159.06 18.3358 156.13 20.717 152.034 20.0332C147.938 19.351 143.794 17.4144 143.794 17.4144C143.794 17.4144 147.912 16.8858 152.034 17.2091C156.156 17.5324 159.06 18.3358 159.06 18.3358ZM168.174 23.8838C166.047 25.2886 162.753 27.3933 157.771 27.7182C152.789 28.0415 146.759 27.639 143.647 26.7952C139.682 25.7202 138.909 22.77 138.023 23.2647C136.097 26.4525 142.683 29.9312 152.11 29.2216C164.079 28.3179 168.746 25.9368 168.174 23.8838Z" fill="#231F20" fill-opacity="0.1"/>
<path fill-rule="evenodd" clip-rule="evenodd" d="M149.29 11.4542C158.853 10.2127 165.714 11.333 160.074 17.1073C157.639 19.6016 154.141 21.8857 145.797 18.3035C137.78 14.8651 139.552 12.7184 149.29 11.4542Z" fill="#B3BFA6"/>
<path fill-rule="evenodd" clip-rule="evenodd" d="M162.061 14.052C160.085 15.9983 156.698 19.2896 152.543 18.3472C148.391 17.4047 142.161 16.7953 141.177 15.9385C141.177 15.9385 146.366 20.1545 153.145 20.1577C159.238 20.1577 162.579 15.1464 162.061 14.052Z" fill="#231F20" fill-opacity="0.1"/>
</g>
<defs>
<clipPath id="clip0_1_2">
<rect width="300" height="200" fill="white"/>
</clipPath>
</defs>
</svg>
