<svg width="300" height="200" viewBox="0 0 300 200" fill="none" xmlns="http://www.w3.org/2000/svg">
<g clip-path="url(#clip0_1_2)">
<path d="M0 0H300V200H0V0Z" fill="#0D0D0D"/>
<path fill-rule="evenodd" clip-rule="evenodd" d="M112.943 132.73C112.943 132.73 89.013 139.067 101.719 147.137C117.85 157.383 178.618 160.191 189.319 151.782C200.021 143.374 175.8 132.73 167.197 132.73H112.943Z" fill="black" fill-opacity="0.1"/>
<path fill-rule="evenodd" clip-rule="evenodd" d="M137.546 122.183C160.787 119.201 182.727 126.632 182.703 140.26C182.692 146.221 172.195 147.828 157.115 150.702C138.986 154.156 117.124 148.575 110.579 140.212C100.192 126.939 114.813 125.098 137.546 122.183Z" fill="#575E75"/>
<path fill-rule="evenodd" clip-rule="evenodd" d="M175.15 127.899C175.15 127.899 157.683 136.187 143.895 131.334C130.108 126.481 124.168 124.026 124.168 124.026C124.168 124.026 142.875 121.529 150.572 121.529C165.968 121.529 175.15 127.899 175.15 127.899Z" fill="#231F20" fill-opacity="0.1"/>
<path fill-rule="evenodd" clip-rule="evenodd" d="M160.174 108.826C179.517 110.486 180.708 117.56 171.366 124.038C162.401 130.254 127.514 126.79 116.733 117.994C105.951 109.198 141.252 107.203 160.174 108.826Z" fill="#666F87"/>
<path fill-rule="evenodd" clip-rule="evenodd" d="M163.82 109.323C163.82 109.323 161.191 118.544 148.581 117.698C135.972 116.851 126.056 110.066 126.056 110.066C126.056 110.066 138.713 108.249 148.924 108.313C159.135 108.377 163.82 109.323 163.82 109.323ZM181.116 134.526C182.128 136.917 177.53 140.999 175.491 140.184C173.452 139.368 169.937 146.925 161.993 146.778C154.049 146.629 139.285 151.519 131.551 147.889C123.818 144.259 108.133 138.278 107.469 134.526C107.469 134.526 110.201 150.728 144.498 151.716C153.744 151.983 159.82 150.041 165.461 149.124C180.747 146.637 185.568 143.542 181.116 134.526Z" fill="#231F20" fill-opacity="0.1"/>
<path fill-rule="evenodd" clip-rule="evenodd" d="M145.95 87.672C164.917 89.326 170.577 105.317 161.416 111.771C152.626 117.963 136.854 117.316 126.282 108.554C115.71 99.792 127.397 86.055 145.95 87.672Z" fill="#B3BFA6"/>
<path fill-rule="evenodd" clip-rule="evenodd" d="M160.738 92.77C157.815 97.412 130.772 94.307 130.051 90.367C130.051 90.367 138.381 86.53 146.634 87.797C154.886 89.066 159.757 91.343 161.932 93.939" fill="#231F20" fill-opacity="0.1"/>
<path fill-rule="evenodd" clip-rule="evenodd" d="M146.104 76.867C159.99 81.429 173.46 76.482 168.396 86.457C164.589 93.955 132.469 92.436 121.802 84.25C111.136 76.065 128.219 70.991 146.104 76.867Z" fill="#666F87"/>
<path fill-rule="evenodd" clip-rule="evenodd" d="M158.156 79.288C156.383 80.828 144.606 82.92 140.253 81.277C135.899 79.634 130.653 77.827 129.832 74.323C129.832 74.323 140.027 74.629 143.994 76.515C147.961 78.401 158.156 79.288 158.156 79.288Z" fill="#231F20" fill-opacity="0.1"/>
<path fill-rule="evenodd" clip-rule="evenodd" d="M145.77 63.075C157.706 64.104 165.796 72.83 160.031 76.849C154.5 80.703 141.078 81.599 134.424 76.145C127.771 70.69 134.095 62.068 145.77 63.075Z" fill="#D0E2D6"/>
<path fill-rule="evenodd" clip-rule="evenodd" d="M173.262 112.088C174.635 113.032 169.342 124.828 162.42 125.133C155.497 125.438 141.979 121.32 138.668 122.768C135.357 124.217 125.123 121.32 124.411 118.802C123.7 116.285 116.457 113.268 116.615 113.032C118.113 110.873 115.671 113.976 115.671 113.976C115.671 113.976 110.006 117.58 132.665 125.133C156.698 131.274 172.315 125.79 176.094 119.641C178.926 113.976 173.262 112.088 173.262 112.088Z" fill="#231F20" fill-opacity="0.1"/>
<path fill-rule="evenodd" clip-rule="evenodd" d="M163.538 96.85C165.671 99.455 161.982 110.546 145.208 108.852C128.434 107.158 123.149 97.382 124.991 94.491C124.991 94.491 121.261 98.631 122.551 103.241C123.841 107.851 133.167 115.62 145.138 115.856C157.11 116.091 165.148 111.296 165.676 104.531C166.018 100.149 163.538 96.85 163.538 96.85Z" fill="#231F20" fill-opacity="0.1"/>
<path fill-rule="evenodd" clip-rule="evenodd" d="M159.425 100.761C160.457 100.821 160.153 102.833 158.848 102.633C157.543 102.432 158.282 100.693 159.425 100.761ZM156.137 97.58C156.722 98.543 155.188 99.552 154.533 98.255C153.878 96.958 155.49 96.513 156.137 97.58ZM139.143 99.468C139.727 100.431 138.195 101.44 137.539 100.143C136.884 98.846 138.496 98.401 139.143 99.468ZM159.057 97.082C160.07 97.592 160.378 98.857 159.628 98.857C158.879 98.857 158.058 99.05 158.165 97.969C158.272 96.889 158.667 96.885 159.057 97.082Z" fill="#231F20" fill-opacity="0.1"/>
<path fill-rule="evenodd" clip-rule="evenodd" d="M146.208 72.437C147.24 72.497 146.936 74.51 145.63 74.309C144.325 74.109 145.065 72.37 146.208 72.437ZM136.767 66.772C137.799 66.832 137.494 68.845 136.189 68.645C134.884 68.444 135.624 66.705 136.767 66.772ZM152.361 69.256C152.945 70.219 151.412 71.228 150.757 69.931C150.101 68.635 151.714 68.19 152.361 69.256Z" fill="white"/>
<path fill-rule="evenodd" clip-rule="evenodd" d="M136.496 99.004C137.467 99.929 137.632 101.373 137.044 102.215C136.411 103.123 136.256 102.605 135.641 100.61C135.128 98.946 136.123 98.648 136.496 99.004ZM169.405 81.686C168.962 82.844 168.195 82.744 166.821 83.446C165.447 84.146 166.15 87.553 164.416 87.653C162.682 87.753 149.84 89.857 147.872 88.103C145.903 86.351 140.889 85.449 138.639 85.85C136.389 86.25 127.953 85.21 126.781 82.45C125.61 79.688 117.408 79.545 119.049 77.237C119.049 77.237 116.466 80.371 122.538 84.487C128.61 88.605 141.123 91.626 150.169 91.292C159.213 90.959 165.442 90.202 167.741 87.25C170.04 84.297 169.405 81.686 169.405 81.686Z" fill="#231F20" fill-opacity="0.1"/>
<path fill-rule="evenodd" clip-rule="evenodd" d="M161.184 71.01C162.141 72.805 160.954 75.627 157.529 76.878C154.105 78.128 145.934 75.738 143.051 76.31C140.169 76.882 131.591 70.59 132.629 68.659C132.629 68.659 128.151 75.849 141.746 79.252C151.528 81.701 160.92 77.447 161.7 75.154C162.437 72.988 161.184 71.01 161.184 71.01ZM155.121 66.185C155.121 66.185 151.063 69.198 144.511 68.573C137.96 67.948 135.497 64.643 135.497 64.643C135.497 64.643 138.71 62.579 144.926 63.069C151.141 63.561 156.268 66.839 156.268 66.839" fill="#231F20" fill-opacity="0.1"/>
<path fill-rule="evenodd" clip-rule="evenodd" d="M141.22 55.741C149.629 54.814 158.852 55.741 158.114 62.73C157.553 68.041 140.856 68.12 134.674 62.943C128.492 57.767 132.658 56.686 141.22 55.741Z" fill="#666F87"/>
<path fill-rule="evenodd" clip-rule="evenodd" d="M152.491 56.428C152.491 56.428 147.592 59.718 143.059 59.152C138.525 58.585 137.385 56.428 137.385 56.428C137.385 56.428 142.501 55.429 145.837 55.441C149.173 55.453 152.491 56.428 152.491 56.428Z" fill="#231F20" fill-opacity="0.1"/>
<path fill-rule="evenodd" clip-rule="evenodd" d="M143.217 49.88C149.327 49.227 159.094 51.763 155.491 54.798C153.935 56.109 145.728 58.519 140.397 56.638C135.275 54.829 136.996 50.545 143.217 49.88Z" fill="#D0E2D6"/>
<path fill-rule="evenodd" clip-rule="evenodd" d="M157.885 60.092C158.102 62.082 156.461 63.636 154.627 63.596C152.794 63.556 150.65 62.799 149.819 63.596C148.989 64.394 148.851 65.473 146.948 65.034C145.046 64.594 141.76 62.158 138.785 62.279C135.81 62.399 131.972 58.479 132.178 57.683C132.178 57.683 131.533 58.347 131.774 59.049C132.016 59.752 133.691 64.459 142.868 66.197C152.045 67.936 156.712 65.303 157.572 63.85C158.433 62.398 158.163 60.836 157.885 60.092ZM150.603 50.538C150.603 50.538 148.791 52.011 146.258 51.588C143.725 51.166 141.162 49.968 141.162 49.968C141.162 49.968 143.709 49.641 146.258 49.841C148.807 50.041 150.603 50.538 150.603 50.538ZM156.239 53.97C154.924 54.839 152.887 56.141 149.806 56.342C146.725 56.542 142.996 56.293 141.071 55.771C138.619 55.106 138.141 53.281 137.593 53.587C136.402 55.559 140.475 57.711 146.305 57.272C153.707 56.713 156.593 55.24 156.239 53.97Z" fill="#231F20" fill-opacity="0.1"/>
<path fill-rule="evenodd" clip-rule="evenodd" d="M144.561 46.281C150.475 45.513 154.718 46.206 151.23 49.778C149.724 51.321 147.561 52.734 142.401 50.518C137.443 48.391 138.539 47.063 144.561 46.281Z" fill="#B3BFA6"/>
<path fill-rule="evenodd" clip-rule="evenodd" d="M152.459 47.888C151.237 49.092 149.142 51.128 146.573 50.545C144.005 49.962 140.152 49.585 139.544 49.055C139.544 49.055 142.753 51.663 146.945 51.665C150.713 51.665 152.779 48.565 152.459 47.888Z" fill="#231F20" fill-opacity="0.1"/>
</g>
<defs>
<clipPath id="clip0_1_2">
<rect width="300" height="200" fill="white"/>
</clipPath>
</defs>
</svg>
